<mxfile host="app.diagrams.net" modified="2021-02-19T07:41:43.302Z" agent="5.0 (Windows NT 10.0; Win64; x64) AppleWebKit/537.36 (KHTML, like Gecko) Chrome/88.0.4324.182 Safari/537.36" etag="d-I-Q7WRsWNj4TRyVxcW" version="14.4.2" type="github" pages="2">
  <diagram id="C5RBs43oDa-KdzZeNtuy" name="Page-1">
    <mxGraphModel dx="1422" dy="762" grid="1" gridSize="10" guides="1" tooltips="1" connect="1" arrows="1" fold="1" page="1" pageScale="1" pageWidth="1169" pageHeight="827" math="0" shadow="0">
      <root>
        <mxCell id="WIyWlLk6GJQsqaUBKTNV-0" />
        <mxCell id="WIyWlLk6GJQsqaUBKTNV-1" parent="WIyWlLk6GJQsqaUBKTNV-0" />
        <mxCell id="D_1ydAFC-er1ZRts4DlC-36" value="" style="edgeStyle=orthogonalEdgeStyle;rounded=0;orthogonalLoop=1;jettySize=auto;html=1;shadow=0;labelBackgroundColor=none;endArrow=block;endFill=0;endSize=8;strokeWidth=1;align=left;exitX=0.5;exitY=1;exitDx=0;exitDy=0;fontSize=13;" parent="WIyWlLk6GJQsqaUBKTNV-1" source="D_1ydAFC-er1ZRts4DlC-30" target="D_1ydAFC-er1ZRts4DlC-35" edge="1">
          <mxGeometry relative="1" as="geometry">
            <Array as="points">
              <mxPoint x="640" y="100" />
              <mxPoint x="870" y="100" />
            </Array>
          </mxGeometry>
        </mxCell>
        <mxCell id="xFRTWmS1-elq7vr72Fm1-8" style="edgeStyle=orthogonalEdgeStyle;rounded=0;orthogonalLoop=1;jettySize=auto;html=1;shadow=0;labelBackgroundColor=none;endArrow=block;endFill=0;endSize=8;strokeWidth=1;align=left;fontSize=13;" parent="WIyWlLk6GJQsqaUBKTNV-1" source="D_1ydAFC-er1ZRts4DlC-30" target="D_1ydAFC-er1ZRts4DlC-33" edge="1">
          <mxGeometry relative="1" as="geometry">
            <Array as="points">
              <mxPoint x="640" y="100" />
              <mxPoint x="420" y="100" />
            </Array>
          </mxGeometry>
        </mxCell>
        <mxCell id="D_1ydAFC-er1ZRts4DlC-30" value="role" style="whiteSpace=wrap;html=1;rounded=1;shadow=0;strokeWidth=1;glass=0;fontSize=13;" parent="WIyWlLk6GJQsqaUBKTNV-1" vertex="1">
          <mxGeometry x="580" y="10" width="120" height="60" as="geometry" />
        </mxCell>
        <mxCell id="D_1ydAFC-er1ZRts4DlC-38" value="Yes" style="edgeStyle=orthogonalEdgeStyle;rounded=0;orthogonalLoop=1;jettySize=auto;html=1;shadow=0;labelBackgroundColor=none;endArrow=block;endFill=0;endSize=8;strokeWidth=1;align=left;fontSize=13;" parent="WIyWlLk6GJQsqaUBKTNV-1" source="D_1ydAFC-er1ZRts4DlC-33" target="D_1ydAFC-er1ZRts4DlC-37" edge="1">
          <mxGeometry x="0.6667" y="20" relative="1" as="geometry">
            <mxPoint as="offset" />
          </mxGeometry>
        </mxCell>
        <mxCell id="D_1ydAFC-er1ZRts4DlC-33" value="seeker" style="rhombus;whiteSpace=wrap;html=1;rounded=1;shadow=0;strokeWidth=1;glass=0;fontSize=13;" parent="WIyWlLk6GJQsqaUBKTNV-1" vertex="1">
          <mxGeometry x="380" y="129" width="80" height="80" as="geometry" />
        </mxCell>
        <mxCell id="xFRTWmS1-elq7vr72Fm1-17" value="" style="edgeStyle=orthogonalEdgeStyle;rounded=0;orthogonalLoop=1;jettySize=auto;html=1;shadow=0;labelBackgroundColor=none;endArrow=block;endFill=0;endSize=8;strokeWidth=1;align=left;entryX=0.5;entryY=0;entryDx=0;entryDy=0;fontSize=13;" parent="WIyWlLk6GJQsqaUBKTNV-1" source="D_1ydAFC-er1ZRts4DlC-35" target="D_1ydAFC-er1ZRts4DlC-40" edge="1">
          <mxGeometry relative="1" as="geometry" />
        </mxCell>
        <mxCell id="D_1ydAFC-er1ZRts4DlC-35" value="carrier" style="rhombus;whiteSpace=wrap;html=1;rounded=1;shadow=0;strokeWidth=1;glass=0;fontSize=13;" parent="WIyWlLk6GJQsqaUBKTNV-1" vertex="1">
          <mxGeometry x="830" y="129" width="80" height="80" as="geometry" />
        </mxCell>
        <mxCell id="D_1ydAFC-er1ZRts4DlC-43" value="" style="edgeStyle=orthogonalEdgeStyle;rounded=0;orthogonalLoop=1;jettySize=auto;html=1;shadow=0;labelBackgroundColor=none;endArrow=block;endFill=0;endSize=8;strokeWidth=1;align=left;fontSize=13;" parent="WIyWlLk6GJQsqaUBKTNV-1" source="D_1ydAFC-er1ZRts4DlC-37" target="D_1ydAFC-er1ZRts4DlC-42" edge="1">
          <mxGeometry relative="1" as="geometry" />
        </mxCell>
        <mxCell id="D_1ydAFC-er1ZRts4DlC-37" value="action" style="rhombus;whiteSpace=wrap;html=1;rounded=1;shadow=0;strokeWidth=1;glass=0;fontSize=13;" parent="WIyWlLk6GJQsqaUBKTNV-1" vertex="1">
          <mxGeometry x="380" y="239" width="80" height="80" as="geometry" />
        </mxCell>
        <mxCell id="xFRTWmS1-elq7vr72Fm1-7" value="" style="edgeStyle=orthogonalEdgeStyle;rounded=0;orthogonalLoop=1;jettySize=auto;html=1;shadow=0;labelBackgroundColor=none;endArrow=block;endFill=0;endSize=8;strokeWidth=1;align=left;fontSize=13;" parent="WIyWlLk6GJQsqaUBKTNV-1" source="D_1ydAFC-er1ZRts4DlC-40" target="D_1ydAFC-er1ZRts4DlC-53" edge="1">
          <mxGeometry relative="1" as="geometry" />
        </mxCell>
        <mxCell id="xFRTWmS1-elq7vr72Fm1-27" style="edgeStyle=orthogonalEdgeStyle;rounded=0;orthogonalLoop=1;jettySize=auto;html=1;entryX=0.5;entryY=0;entryDx=0;entryDy=0;shadow=0;labelBackgroundColor=none;endArrow=block;endFill=0;endSize=8;strokeWidth=1;align=left;fontSize=13;" parent="WIyWlLk6GJQsqaUBKTNV-1" source="D_1ydAFC-er1ZRts4DlC-40" target="xFRTWmS1-elq7vr72Fm1-26" edge="1">
          <mxGeometry relative="1" as="geometry" />
        </mxCell>
        <mxCell id="D_1ydAFC-er1ZRts4DlC-40" value="&lt;span style=&quot;font-size: 13px;&quot;&gt;action&lt;/span&gt;" style="rhombus;whiteSpace=wrap;html=1;rounded=1;shadow=0;strokeWidth=1;glass=0;fontSize=13;" parent="WIyWlLk6GJQsqaUBKTNV-1" vertex="1">
          <mxGeometry x="830" y="238" width="80" height="80" as="geometry" />
        </mxCell>
        <mxCell id="D_1ydAFC-er1ZRts4DlC-57" value="" style="edgeStyle=orthogonalEdgeStyle;rounded=0;orthogonalLoop=1;jettySize=auto;html=1;shadow=0;labelBackgroundColor=none;endArrow=block;endFill=0;endSize=8;strokeWidth=1;align=left;fontSize=13;" parent="WIyWlLk6GJQsqaUBKTNV-1" source="D_1ydAFC-er1ZRts4DlC-42" target="D_1ydAFC-er1ZRts4DlC-56" edge="1">
          <mxGeometry relative="1" as="geometry" />
        </mxCell>
        <mxCell id="D_1ydAFC-er1ZRts4DlC-42" value="隨機移動一步" style="whiteSpace=wrap;html=1;rounded=1;shadow=0;strokeWidth=1;glass=0;fontSize=13;" parent="WIyWlLk6GJQsqaUBKTNV-1" vertex="1">
          <mxGeometry x="220" y="369" width="120" height="60" as="geometry" />
        </mxCell>
        <mxCell id="D_1ydAFC-er1ZRts4DlC-92" value="" style="edgeStyle=orthogonalEdgeStyle;rounded=0;orthogonalLoop=1;jettySize=auto;html=1;shadow=0;labelBackgroundColor=none;endArrow=block;endFill=0;endSize=8;strokeWidth=1;align=left;entryX=0.425;entryY=-0.05;entryDx=0;entryDy=0;entryPerimeter=0;fontSize=13;" parent="WIyWlLk6GJQsqaUBKTNV-1" source="D_1ydAFC-er1ZRts4DlC-37" target="xFRTWmS1-elq7vr72Fm1-0" edge="1">
          <mxGeometry relative="1" as="geometry">
            <mxPoint x="420" y="369" as="targetPoint" />
          </mxGeometry>
        </mxCell>
        <mxCell id="D_1ydAFC-er1ZRts4DlC-48" value="go" style="text;html=1;strokeColor=none;fillColor=none;align=center;verticalAlign=middle;whiteSpace=wrap;rounded=0;fontColor=#000000;fontSize=13;" parent="WIyWlLk6GJQsqaUBKTNV-1" vertex="1">
          <mxGeometry x="280" y="319" width="40" height="20" as="geometry" />
        </mxCell>
        <mxCell id="D_1ydAFC-er1ZRts4DlC-50" value="" style="edgeStyle=orthogonalEdgeStyle;rounded=0;orthogonalLoop=1;jettySize=auto;html=1;shadow=0;labelBackgroundColor=none;endArrow=block;endFill=0;endSize=8;strokeWidth=1;align=left;fontSize=13;" parent="WIyWlLk6GJQsqaUBKTNV-1" source="D_1ydAFC-er1ZRts4DlC-40" target="D_1ydAFC-er1ZRts4DlC-52" edge="1">
          <mxGeometry relative="1" as="geometry">
            <mxPoint x="715" y="350" as="sourcePoint" />
            <Array as="points">
              <mxPoint x="690" y="279" />
            </Array>
          </mxGeometry>
        </mxCell>
        <mxCell id="D_1ydAFC-er1ZRts4DlC-61" value="" style="edgeStyle=orthogonalEdgeStyle;rounded=0;orthogonalLoop=1;jettySize=auto;html=1;shadow=0;labelBackgroundColor=none;endArrow=block;endFill=0;endSize=8;strokeWidth=1;align=left;fontSize=13;" parent="WIyWlLk6GJQsqaUBKTNV-1" source="D_1ydAFC-er1ZRts4DlC-52" target="D_1ydAFC-er1ZRts4DlC-60" edge="1">
          <mxGeometry relative="1" as="geometry" />
        </mxCell>
        <mxCell id="D_1ydAFC-er1ZRts4DlC-52" value="往食物移動一步&lt;br style=&quot;font-size: 13px;&quot;&gt;並&lt;font color=&quot;#ff0000&quot; style=&quot;font-size: 13px;&quot;&gt;增添&lt;/font&gt;費洛蒙" style="whiteSpace=wrap;html=1;rounded=1;shadow=0;strokeWidth=1;glass=0;fontSize=13;" parent="WIyWlLk6GJQsqaUBKTNV-1" vertex="1">
          <mxGeometry x="630" y="359" width="120" height="61" as="geometry" />
        </mxCell>
        <mxCell id="D_1ydAFC-er1ZRts4DlC-77" value="" style="edgeStyle=orthogonalEdgeStyle;rounded=0;orthogonalLoop=1;jettySize=auto;html=1;shadow=0;labelBackgroundColor=none;endArrow=block;endFill=0;endSize=8;strokeWidth=1;align=left;fontSize=13;" parent="WIyWlLk6GJQsqaUBKTNV-1" source="D_1ydAFC-er1ZRts4DlC-53" target="D_1ydAFC-er1ZRts4DlC-76" edge="1">
          <mxGeometry relative="1" as="geometry" />
        </mxCell>
        <mxCell id="D_1ydAFC-er1ZRts4DlC-53" value="往巢穴移動一步&lt;br style=&quot;font-size: 13px;&quot;&gt;並&lt;font color=&quot;#ff0000&quot; style=&quot;font-size: 13px;&quot;&gt;增添&lt;/font&gt;費洛蒙" style="whiteSpace=wrap;html=1;rounded=1;shadow=0;strokeWidth=1;glass=0;fontSize=13;" parent="WIyWlLk6GJQsqaUBKTNV-1" vertex="1">
          <mxGeometry x="810" y="359" width="120" height="60" as="geometry" />
        </mxCell>
        <mxCell id="D_1ydAFC-er1ZRts4DlC-54" value="go" style="text;html=1;strokeColor=none;fillColor=none;align=center;verticalAlign=middle;whiteSpace=wrap;rounded=0;fontColor=#000000;fontSize=13;" parent="WIyWlLk6GJQsqaUBKTNV-1" vertex="1">
          <mxGeometry x="700" y="319" width="40" height="20" as="geometry" />
        </mxCell>
        <mxCell id="D_1ydAFC-er1ZRts4DlC-55" value="return1" style="text;html=1;strokeColor=none;fillColor=none;align=center;verticalAlign=middle;whiteSpace=wrap;rounded=0;fontColor=#000000;fontSize=13;" parent="WIyWlLk6GJQsqaUBKTNV-1" vertex="1">
          <mxGeometry x="890" y="319" width="40" height="20" as="geometry" />
        </mxCell>
        <mxCell id="D_1ydAFC-er1ZRts4DlC-59" value="" style="edgeStyle=orthogonalEdgeStyle;rounded=0;orthogonalLoop=1;jettySize=auto;html=1;shadow=0;labelBackgroundColor=none;endArrow=block;endFill=0;endSize=8;strokeWidth=1;align=left;fontSize=13;" parent="WIyWlLk6GJQsqaUBKTNV-1" source="D_1ydAFC-er1ZRts4DlC-56" edge="1">
          <mxGeometry relative="1" as="geometry">
            <mxPoint x="280" y="580" as="targetPoint" />
          </mxGeometry>
        </mxCell>
        <mxCell id="D_1ydAFC-er1ZRts4DlC-71" value="" style="edgeStyle=orthogonalEdgeStyle;rounded=0;orthogonalLoop=1;jettySize=auto;html=1;shadow=0;labelBackgroundColor=none;endArrow=block;endFill=0;endSize=8;strokeWidth=1;align=left;fontSize=13;" parent="WIyWlLk6GJQsqaUBKTNV-1" source="D_1ydAFC-er1ZRts4DlC-56" target="D_1ydAFC-er1ZRts4DlC-70" edge="1">
          <mxGeometry relative="1" as="geometry" />
        </mxCell>
        <mxCell id="D_1ydAFC-er1ZRts4DlC-56" value="抵達食物" style="rhombus;whiteSpace=wrap;html=1;rounded=1;shadow=0;strokeWidth=1;glass=0;arcSize=35;fontSize=13;" parent="WIyWlLk6GJQsqaUBKTNV-1" vertex="1">
          <mxGeometry x="240" y="460" width="80" height="80" as="geometry" />
        </mxCell>
        <mxCell id="D_1ydAFC-er1ZRts4DlC-63" value="" style="edgeStyle=orthogonalEdgeStyle;rounded=0;orthogonalLoop=1;jettySize=auto;html=1;shadow=0;labelBackgroundColor=none;endArrow=block;endFill=0;endSize=8;strokeWidth=1;align=left;exitX=0;exitY=0.5;exitDx=0;exitDy=0;fontSize=13;" parent="WIyWlLk6GJQsqaUBKTNV-1" source="xFRTWmS1-elq7vr72Fm1-19" target="D_1ydAFC-er1ZRts4DlC-62" edge="1">
          <mxGeometry relative="1" as="geometry">
            <mxPoint x="600" y="630" as="sourcePoint" />
            <Array as="points">
              <mxPoint x="560" y="620" />
            </Array>
          </mxGeometry>
        </mxCell>
        <mxCell id="xFRTWmS1-elq7vr72Fm1-20" value="" style="edgeStyle=orthogonalEdgeStyle;rounded=0;orthogonalLoop=1;jettySize=auto;html=1;shadow=0;labelBackgroundColor=none;endArrow=block;endFill=0;endSize=8;strokeWidth=1;align=left;fontSize=13;" parent="WIyWlLk6GJQsqaUBKTNV-1" source="D_1ydAFC-er1ZRts4DlC-60" target="xFRTWmS1-elq7vr72Fm1-19" edge="1">
          <mxGeometry relative="1" as="geometry" />
        </mxCell>
        <mxCell id="D_1ydAFC-er1ZRts4DlC-60" value="抵達食物" style="rhombus;whiteSpace=wrap;html=1;rounded=1;shadow=0;strokeWidth=1;glass=0;fontSize=13;" parent="WIyWlLk6GJQsqaUBKTNV-1" vertex="1">
          <mxGeometry x="650" y="460" width="80" height="80" as="geometry" />
        </mxCell>
        <mxCell id="D_1ydAFC-er1ZRts4DlC-62" value="action = return2" style="whiteSpace=wrap;html=1;rounded=1;shadow=0;strokeWidth=1;glass=0;fontSize=13;" parent="WIyWlLk6GJQsqaUBKTNV-1" vertex="1">
          <mxGeometry x="500" y="700" width="120" height="60" as="geometry" />
        </mxCell>
        <mxCell id="D_1ydAFC-er1ZRts4DlC-66" value="action = return1" style="whiteSpace=wrap;html=1;rounded=1;shadow=0;strokeWidth=1;glass=0;fontSize=13;" parent="WIyWlLk6GJQsqaUBKTNV-1" vertex="1">
          <mxGeometry x="630" y="700" width="120" height="60" as="geometry" />
        </mxCell>
        <mxCell id="D_1ydAFC-er1ZRts4DlC-73" value="" style="edgeStyle=orthogonalEdgeStyle;rounded=0;orthogonalLoop=1;jettySize=auto;html=1;shadow=0;labelBackgroundColor=none;endArrow=block;endFill=0;endSize=8;strokeWidth=1;align=left;fontSize=13;" parent="WIyWlLk6GJQsqaUBKTNV-1" source="D_1ydAFC-er1ZRts4DlC-70" target="D_1ydAFC-er1ZRts4DlC-72" edge="1">
          <mxGeometry relative="1" as="geometry" />
        </mxCell>
        <mxCell id="D_1ydAFC-er1ZRts4DlC-70" value="達到上限步數" style="rhombus;whiteSpace=wrap;html=1;rounded=1;shadow=0;strokeWidth=1;glass=0;arcSize=35;fontSize=13;" parent="WIyWlLk6GJQsqaUBKTNV-1" vertex="1">
          <mxGeometry x="90" y="460" width="80" height="80" as="geometry" />
        </mxCell>
        <mxCell id="D_1ydAFC-er1ZRts4DlC-72" value="action = return" style="whiteSpace=wrap;html=1;rounded=1;shadow=0;strokeWidth=1;glass=0;arcSize=35;fontSize=13;" parent="WIyWlLk6GJQsqaUBKTNV-1" vertex="1">
          <mxGeometry x="70" y="580" width="120" height="60" as="geometry" />
        </mxCell>
        <mxCell id="D_1ydAFC-er1ZRts4DlC-74" value="Yes" style="text;html=1;strokeColor=none;fillColor=none;align=center;verticalAlign=middle;whiteSpace=wrap;rounded=0;fontColor=#000000;fontSize=13;" parent="WIyWlLk6GJQsqaUBKTNV-1" vertex="1">
          <mxGeometry x="280" y="540" width="40" height="20" as="geometry" />
        </mxCell>
        <mxCell id="D_1ydAFC-er1ZRts4DlC-75" value="No" style="text;html=1;strokeColor=none;fillColor=none;align=center;verticalAlign=middle;whiteSpace=wrap;rounded=0;fontColor=#000000;fontSize=13;" parent="WIyWlLk6GJQsqaUBKTNV-1" vertex="1">
          <mxGeometry x="190" y="500" width="40" height="20" as="geometry" />
        </mxCell>
        <mxCell id="D_1ydAFC-er1ZRts4DlC-79" value="" style="edgeStyle=orthogonalEdgeStyle;rounded=0;orthogonalLoop=1;jettySize=auto;html=1;shadow=0;labelBackgroundColor=none;endArrow=block;endFill=0;endSize=8;strokeWidth=1;align=left;fontSize=13;" parent="WIyWlLk6GJQsqaUBKTNV-1" source="D_1ydAFC-er1ZRts4DlC-76" target="D_1ydAFC-er1ZRts4DlC-78" edge="1">
          <mxGeometry relative="1" as="geometry" />
        </mxCell>
        <mxCell id="D_1ydAFC-er1ZRts4DlC-76" value="抵達巢穴" style="rhombus;whiteSpace=wrap;html=1;rounded=1;shadow=0;strokeWidth=1;glass=0;fontSize=13;" parent="WIyWlLk6GJQsqaUBKTNV-1" vertex="1">
          <mxGeometry x="830" y="460" width="80" height="80" as="geometry" />
        </mxCell>
        <mxCell id="D_1ydAFC-er1ZRts4DlC-78" value="&lt;span style=&quot;font-size: 13px;&quot;&gt;action = go&lt;/span&gt;" style="whiteSpace=wrap;html=1;rounded=1;shadow=0;strokeWidth=1;glass=0;fontSize=13;" parent="WIyWlLk6GJQsqaUBKTNV-1" vertex="1">
          <mxGeometry x="810" y="580" width="120" height="60" as="geometry" />
        </mxCell>
        <mxCell id="D_1ydAFC-er1ZRts4DlC-91" value="Yes" style="text;html=1;strokeColor=none;fillColor=none;align=center;verticalAlign=middle;whiteSpace=wrap;rounded=0;fontColor=#000000;fontSize=13;" parent="WIyWlLk6GJQsqaUBKTNV-1" vertex="1">
          <mxGeometry x="870" y="540" width="40" height="20" as="geometry" />
        </mxCell>
        <mxCell id="xFRTWmS1-elq7vr72Fm1-0" value="往巢穴移動一步" style="whiteSpace=wrap;html=1;rounded=1;shadow=0;strokeWidth=1;glass=0;fontSize=13;" parent="WIyWlLk6GJQsqaUBKTNV-1" vertex="1">
          <mxGeometry x="369" y="369" width="120" height="60" as="geometry" />
        </mxCell>
        <mxCell id="xFRTWmS1-elq7vr72Fm1-1" value="return" style="text;html=1;strokeColor=none;fillColor=none;align=center;verticalAlign=middle;whiteSpace=wrap;rounded=0;fontColor=#000000;fontSize=13;" parent="WIyWlLk6GJQsqaUBKTNV-1" vertex="1">
          <mxGeometry x="430" y="319" width="40" height="20" as="geometry" />
        </mxCell>
        <mxCell id="xFRTWmS1-elq7vr72Fm1-2" value="Yes" style="text;html=1;strokeColor=none;fillColor=none;align=center;verticalAlign=middle;whiteSpace=wrap;rounded=0;fontColor=#000000;fontSize=13;" parent="WIyWlLk6GJQsqaUBKTNV-1" vertex="1">
          <mxGeometry x="420" y="540" width="40" height="20" as="geometry" />
        </mxCell>
        <mxCell id="xFRTWmS1-elq7vr72Fm1-3" value="" style="edgeStyle=orthogonalEdgeStyle;rounded=0;orthogonalLoop=1;jettySize=auto;html=1;shadow=0;labelBackgroundColor=none;endArrow=block;endFill=0;endSize=8;strokeWidth=1;align=left;fontSize=13;" parent="WIyWlLk6GJQsqaUBKTNV-1" source="xFRTWmS1-elq7vr72Fm1-0" target="xFRTWmS1-elq7vr72Fm1-5" edge="1">
          <mxGeometry relative="1" as="geometry">
            <Array as="points">
              <mxPoint x="420" y="450" />
              <mxPoint x="420" y="450" />
            </Array>
          </mxGeometry>
        </mxCell>
        <mxCell id="xFRTWmS1-elq7vr72Fm1-4" value="" style="edgeStyle=orthogonalEdgeStyle;rounded=0;orthogonalLoop=1;jettySize=auto;html=1;shadow=0;labelBackgroundColor=none;endArrow=block;endFill=0;endSize=8;strokeWidth=1;align=left;fontSize=13;" parent="WIyWlLk6GJQsqaUBKTNV-1" source="xFRTWmS1-elq7vr72Fm1-5" target="xFRTWmS1-elq7vr72Fm1-6" edge="1">
          <mxGeometry relative="1" as="geometry" />
        </mxCell>
        <mxCell id="xFRTWmS1-elq7vr72Fm1-5" value="抵達巢穴" style="rhombus;whiteSpace=wrap;html=1;rounded=1;shadow=0;strokeWidth=1;glass=0;fontSize=13;" parent="WIyWlLk6GJQsqaUBKTNV-1" vertex="1">
          <mxGeometry x="380" y="460" width="80" height="80" as="geometry" />
        </mxCell>
        <mxCell id="xFRTWmS1-elq7vr72Fm1-6" value="action = go" style="whiteSpace=wrap;html=1;rounded=1;shadow=0;strokeWidth=1;glass=0;fontSize=13;" parent="WIyWlLk6GJQsqaUBKTNV-1" vertex="1">
          <mxGeometry x="360" y="580" width="120" height="60" as="geometry" />
        </mxCell>
        <mxCell id="xFRTWmS1-elq7vr72Fm1-10" value="Yes" style="text;html=1;strokeColor=none;fillColor=none;align=center;verticalAlign=middle;whiteSpace=wrap;rounded=0;fontColor=#000000;fontSize=13;" parent="WIyWlLk6GJQsqaUBKTNV-1" vertex="1">
          <mxGeometry x="140" y="540" width="40" height="20" as="geometry" />
        </mxCell>
        <mxCell id="xFRTWmS1-elq7vr72Fm1-18" value="Yes" style="text;html=1;strokeColor=none;fillColor=none;align=center;verticalAlign=middle;whiteSpace=wrap;rounded=0;fontColor=#000000;fontSize=13;" parent="WIyWlLk6GJQsqaUBKTNV-1" vertex="1">
          <mxGeometry x="880" y="209" width="40" height="20" as="geometry" />
        </mxCell>
        <mxCell id="xFRTWmS1-elq7vr72Fm1-22" value="" style="edgeStyle=orthogonalEdgeStyle;rounded=0;orthogonalLoop=1;jettySize=auto;html=1;shadow=0;labelBackgroundColor=none;endArrow=block;endFill=0;endSize=8;strokeWidth=1;align=left;fontSize=13;" parent="WIyWlLk6GJQsqaUBKTNV-1" source="xFRTWmS1-elq7vr72Fm1-19" target="D_1ydAFC-er1ZRts4DlC-66" edge="1">
          <mxGeometry relative="1" as="geometry" />
        </mxCell>
        <mxCell id="xFRTWmS1-elq7vr72Fm1-19" value="食物已空" style="rhombus;whiteSpace=wrap;html=1;rounded=1;shadow=0;strokeWidth=1;glass=0;fontSize=13;" parent="WIyWlLk6GJQsqaUBKTNV-1" vertex="1">
          <mxGeometry x="650" y="580" width="80" height="80" as="geometry" />
        </mxCell>
        <mxCell id="xFRTWmS1-elq7vr72Fm1-21" value="Yes" style="text;html=1;strokeColor=none;fillColor=none;align=center;verticalAlign=middle;whiteSpace=wrap;rounded=0;fontColor=#000000;fontSize=13;" parent="WIyWlLk6GJQsqaUBKTNV-1" vertex="1">
          <mxGeometry x="690" y="540" width="40" height="20" as="geometry" />
        </mxCell>
        <mxCell id="xFRTWmS1-elq7vr72Fm1-23" value="No" style="text;html=1;strokeColor=none;fillColor=none;align=center;verticalAlign=middle;whiteSpace=wrap;rounded=0;fontColor=#000000;fontSize=13;" parent="WIyWlLk6GJQsqaUBKTNV-1" vertex="1">
          <mxGeometry x="690" y="670" width="40" height="20" as="geometry" />
        </mxCell>
        <mxCell id="xFRTWmS1-elq7vr72Fm1-24" value="Yes" style="text;html=1;strokeColor=none;fillColor=none;align=center;verticalAlign=middle;whiteSpace=wrap;rounded=0;fontColor=#000000;fontSize=13;" parent="WIyWlLk6GJQsqaUBKTNV-1" vertex="1">
          <mxGeometry x="600" y="590" width="40" height="20" as="geometry" />
        </mxCell>
        <mxCell id="xFRTWmS1-elq7vr72Fm1-30" value="" style="edgeStyle=orthogonalEdgeStyle;rounded=0;orthogonalLoop=1;jettySize=auto;html=1;shadow=0;labelBackgroundColor=none;endArrow=block;endFill=0;endSize=8;strokeWidth=1;align=left;fontSize=13;" parent="WIyWlLk6GJQsqaUBKTNV-1" source="xFRTWmS1-elq7vr72Fm1-26" target="xFRTWmS1-elq7vr72Fm1-29" edge="1">
          <mxGeometry relative="1" as="geometry" />
        </mxCell>
        <mxCell id="xFRTWmS1-elq7vr72Fm1-26" value="往巢穴移動一步&lt;br style=&quot;font-size: 13px;&quot;&gt;並&lt;font color=&quot;#ff0000&quot; style=&quot;font-size: 13px;&quot;&gt;蒸散&lt;/font&gt;費洛蒙" style="whiteSpace=wrap;html=1;rounded=1;shadow=0;strokeWidth=1;glass=0;fontSize=13;" parent="WIyWlLk6GJQsqaUBKTNV-1" vertex="1">
          <mxGeometry x="960" y="359" width="120" height="60" as="geometry" />
        </mxCell>
        <mxCell id="xFRTWmS1-elq7vr72Fm1-28" value="return2" style="text;html=1;strokeColor=none;fillColor=none;align=center;verticalAlign=middle;whiteSpace=wrap;rounded=0;fontColor=#000000;fontSize=13;" parent="WIyWlLk6GJQsqaUBKTNV-1" vertex="1">
          <mxGeometry x="1030" y="319" width="40" height="20" as="geometry" />
        </mxCell>
        <mxCell id="xFRTWmS1-elq7vr72Fm1-32" value="" style="edgeStyle=orthogonalEdgeStyle;rounded=0;orthogonalLoop=1;jettySize=auto;html=1;shadow=0;labelBackgroundColor=none;endArrow=block;endFill=0;endSize=8;strokeWidth=1;align=left;fontSize=13;" parent="WIyWlLk6GJQsqaUBKTNV-1" source="xFRTWmS1-elq7vr72Fm1-29" target="xFRTWmS1-elq7vr72Fm1-31" edge="1">
          <mxGeometry relative="1" as="geometry" />
        </mxCell>
        <mxCell id="xFRTWmS1-elq7vr72Fm1-29" value="抵達巢穴" style="rhombus;whiteSpace=wrap;html=1;rounded=1;shadow=0;strokeWidth=1;glass=0;fontSize=13;" parent="WIyWlLk6GJQsqaUBKTNV-1" vertex="1">
          <mxGeometry x="980" y="460" width="80" height="80" as="geometry" />
        </mxCell>
        <mxCell id="xFRTWmS1-elq7vr72Fm1-31" value="role = seeker&lt;br style=&quot;font-size: 13px;&quot;&gt;action = go&amp;nbsp;" style="whiteSpace=wrap;html=1;rounded=1;shadow=0;strokeWidth=1;glass=0;fontSize=13;" parent="WIyWlLk6GJQsqaUBKTNV-1" vertex="1">
          <mxGeometry x="960" y="580" width="120" height="60" as="geometry" />
        </mxCell>
        <mxCell id="xFRTWmS1-elq7vr72Fm1-33" value="Yes" style="text;html=1;strokeColor=none;fillColor=none;align=center;verticalAlign=middle;whiteSpace=wrap;rounded=0;fontColor=#000000;fontSize=13;" parent="WIyWlLk6GJQsqaUBKTNV-1" vertex="1">
          <mxGeometry x="1030" y="540" width="40" height="20" as="geometry" />
        </mxCell>
        <mxCell id="xFRTWmS1-elq7vr72Fm1-34" value="role = carrier&lt;br style=&quot;font-size: 13px&quot;&gt;action = return1" style="whiteSpace=wrap;html=1;rounded=1;shadow=0;strokeWidth=1;glass=0;fontSize=13;" parent="WIyWlLk6GJQsqaUBKTNV-1" vertex="1">
          <mxGeometry x="220" y="700" width="120" height="60" as="geometry" />
        </mxCell>
        <mxCell id="xFRTWmS1-elq7vr72Fm1-36" value="" style="edgeStyle=orthogonalEdgeStyle;rounded=0;orthogonalLoop=1;jettySize=auto;html=1;shadow=0;labelBackgroundColor=none;endArrow=block;endFill=0;endSize=8;strokeWidth=1;fontSize=13;align=left;" parent="WIyWlLk6GJQsqaUBKTNV-1" source="xFRTWmS1-elq7vr72Fm1-35" target="xFRTWmS1-elq7vr72Fm1-34" edge="1">
          <mxGeometry relative="1" as="geometry" />
        </mxCell>
        <mxCell id="xFRTWmS1-elq7vr72Fm1-35" value="食物已空" style="rhombus;whiteSpace=wrap;html=1;rounded=1;shadow=0;strokeWidth=1;glass=0;fontSize=13;" parent="WIyWlLk6GJQsqaUBKTNV-1" vertex="1">
          <mxGeometry x="240" y="580" width="80" height="80" as="geometry" />
        </mxCell>
        <mxCell id="xFRTWmS1-elq7vr72Fm1-37" value="No" style="text;html=1;strokeColor=none;fillColor=none;align=center;verticalAlign=middle;whiteSpace=wrap;rounded=0;fontColor=#000000;fontSize=13;" parent="WIyWlLk6GJQsqaUBKTNV-1" vertex="1">
          <mxGeometry x="290" y="660" width="40" height="20" as="geometry" />
        </mxCell>
      </root>
    </mxGraphModel>
  </diagram>
  <diagram id="YyHrE5DsL-xGlaKrcODO" name="Page-2">
    <mxGraphModel dx="1422" dy="762" grid="1" gridSize="10" guides="1" tooltips="1" connect="1" arrows="1" fold="1" page="1" pageScale="1" pageWidth="1169" pageHeight="827" math="0" shadow="0">
      <root>
        <mxCell id="e6-5AlToE3GWrAjFxom6-0" />
        <mxCell id="e6-5AlToE3GWrAjFxom6-1" parent="e6-5AlToE3GWrAjFxom6-0" />
        <mxCell id="lK7JsbOiQ2ySp4HmNh5x-2" value="" style="edgeStyle=orthogonalEdgeStyle;rounded=0;orthogonalLoop=1;jettySize=auto;html=1;shadow=0;labelBackgroundColor=none;endArrow=block;endFill=0;endSize=8;strokeWidth=1;fontSize=13;align=left;" edge="1" parent="e6-5AlToE3GWrAjFxom6-1" source="XZ_Q9rcmCQgqoaimkRMn-0" target="lK7JsbOiQ2ySp4HmNh5x-1">
          <mxGeometry relative="1" as="geometry" />
        </mxCell>
        <mxCell id="XZ_Q9rcmCQgqoaimkRMn-0" value="role" style="whiteSpace=wrap;html=1;rounded=1;shadow=0;strokeWidth=1;glass=0;fontSize=13;" vertex="1" parent="e6-5AlToE3GWrAjFxom6-1">
          <mxGeometry x="580" y="10" width="120" height="60" as="geometry" />
        </mxCell>
        <mxCell id="XZ_Q9rcmCQgqoaimkRMn-1" value="seeker" style="rhombus;whiteSpace=wrap;html=1;rounded=1;shadow=0;strokeWidth=1;glass=0;fontSize=13;" vertex="1" parent="e6-5AlToE3GWrAjFxom6-1">
          <mxGeometry x="380" y="129" width="80" height="80" as="geometry" />
        </mxCell>
        <mxCell id="8Gio5fNEHYBw2QR1s_1J-17" value="" style="edgeStyle=orthogonalEdgeStyle;rounded=0;orthogonalLoop=1;jettySize=auto;html=1;shadow=0;labelBackgroundColor=none;endArrow=block;endFill=0;endSize=8;strokeWidth=1;fontSize=13;align=left;" edge="1" parent="e6-5AlToE3GWrAjFxom6-1" source="XZ_Q9rcmCQgqoaimkRMn-2" target="F1GLefQHkI6OfKnNPMdR-1">
          <mxGeometry relative="1" as="geometry" />
        </mxCell>
        <mxCell id="XZ_Q9rcmCQgqoaimkRMn-2" value="action" style="rhombus;whiteSpace=wrap;html=1;rounded=1;shadow=0;strokeWidth=1;glass=0;fontSize=13;" vertex="1" parent="e6-5AlToE3GWrAjFxom6-1">
          <mxGeometry x="380" y="239" width="80" height="80" as="geometry" />
        </mxCell>
        <mxCell id="Ut6CWFajYszcuSlrTqbw-0" style="edgeStyle=orthogonalEdgeStyle;rounded=0;orthogonalLoop=1;jettySize=auto;html=1;shadow=0;labelBackgroundColor=none;endArrow=block;endFill=0;endSize=8;strokeWidth=1;align=left;fontSize=13;" edge="1" parent="e6-5AlToE3GWrAjFxom6-1">
          <mxGeometry relative="1" as="geometry">
            <Array as="points">
              <mxPoint x="640" y="100" />
              <mxPoint x="420" y="100" />
            </Array>
            <mxPoint x="640" y="70" as="sourcePoint" />
            <mxPoint x="420" y="129" as="targetPoint" />
          </mxGeometry>
        </mxCell>
        <mxCell id="Ut6CWFajYszcuSlrTqbw-1" value="Yes" style="edgeStyle=orthogonalEdgeStyle;rounded=0;orthogonalLoop=1;jettySize=auto;html=1;shadow=0;labelBackgroundColor=none;endArrow=block;endFill=0;endSize=8;strokeWidth=1;align=right;fontSize=13;" edge="1" parent="e6-5AlToE3GWrAjFxom6-1">
          <mxGeometry x="0.4" y="30" relative="1" as="geometry">
            <mxPoint as="offset" />
            <mxPoint x="420" y="209" as="sourcePoint" />
            <mxPoint x="420" y="239" as="targetPoint" />
          </mxGeometry>
        </mxCell>
        <mxCell id="F1GLefQHkI6OfKnNPMdR-1" value="隨機移動一步" style="whiteSpace=wrap;html=1;rounded=1;shadow=0;strokeWidth=1;glass=0;fontSize=13;" vertex="1" parent="e6-5AlToE3GWrAjFxom6-1">
          <mxGeometry x="360" y="360" width="120" height="60" as="geometry" />
        </mxCell>
        <mxCell id="F1GLefQHkI6OfKnNPMdR-2" value="go" style="text;html=1;strokeColor=none;fillColor=none;align=center;verticalAlign=middle;whiteSpace=wrap;rounded=0;fontColor=#000000;fontSize=13;" vertex="1" parent="e6-5AlToE3GWrAjFxom6-1">
          <mxGeometry x="420" y="330" width="40" height="20" as="geometry" />
        </mxCell>
        <mxCell id="oJ0ddHMDdCS9o8LI3TZ5-0" value="" style="edgeStyle=orthogonalEdgeStyle;rounded=0;orthogonalLoop=1;jettySize=auto;html=1;shadow=0;labelBackgroundColor=none;endArrow=block;endFill=0;endSize=8;strokeWidth=1;align=left;fontSize=13;entryX=0.5;entryY=0;entryDx=0;entryDy=0;" edge="1" parent="e6-5AlToE3GWrAjFxom6-1" source="oJ0ddHMDdCS9o8LI3TZ5-1" target="J-so1B9bNraEZ4jYTsED-0">
          <mxGeometry relative="1" as="geometry">
            <mxPoint x="420" y="591" as="targetPoint" />
          </mxGeometry>
        </mxCell>
        <mxCell id="oJ0ddHMDdCS9o8LI3TZ5-1" value="抵達食物" style="rhombus;whiteSpace=wrap;html=1;rounded=1;shadow=0;strokeWidth=1;glass=0;arcSize=35;fontSize=13;" vertex="1" parent="e6-5AlToE3GWrAjFxom6-1">
          <mxGeometry x="380" y="471" width="80" height="80" as="geometry" />
        </mxCell>
        <mxCell id="oJ0ddHMDdCS9o8LI3TZ5-2" value="Yes" style="text;html=1;strokeColor=none;fillColor=none;align=center;verticalAlign=middle;whiteSpace=wrap;rounded=0;fontColor=#000000;fontSize=13;" vertex="1" parent="e6-5AlToE3GWrAjFxom6-1">
          <mxGeometry x="420" y="551" width="40" height="20" as="geometry" />
        </mxCell>
        <mxCell id="d1LOiQbMnoz1KwpyCBKo-0" value="" style="edgeStyle=orthogonalEdgeStyle;rounded=0;orthogonalLoop=1;jettySize=auto;html=1;shadow=0;labelBackgroundColor=none;endArrow=block;endFill=0;endSize=8;strokeWidth=1;align=left;fontSize=13;" edge="1" parent="e6-5AlToE3GWrAjFxom6-1">
          <mxGeometry relative="1" as="geometry">
            <mxPoint x="420" y="440" as="sourcePoint" />
            <mxPoint x="420" y="471" as="targetPoint" />
          </mxGeometry>
        </mxCell>
        <mxCell id="J-so1B9bNraEZ4jYTsED-0" value="採集食物&lt;br&gt;role = leader&lt;br style=&quot;font-size: 13px&quot;&gt;action = return1" style="whiteSpace=wrap;html=1;rounded=1;shadow=0;strokeWidth=1;glass=0;fontSize=13;arcSize=22;" vertex="1" parent="e6-5AlToE3GWrAjFxom6-1">
          <mxGeometry x="360" y="591" width="120" height="60" as="geometry" />
        </mxCell>
        <mxCell id="8Gio5fNEHYBw2QR1s_1J-12" value="" style="edgeStyle=orthogonalEdgeStyle;rounded=0;orthogonalLoop=1;jettySize=auto;html=1;shadow=0;labelBackgroundColor=none;endArrow=block;endFill=0;endSize=8;strokeWidth=1;fontSize=13;align=left;entryX=0.5;entryY=0;entryDx=0;entryDy=0;" edge="1" parent="e6-5AlToE3GWrAjFxom6-1" source="ny1AG7sp7vvqe6_ABWWL-0" target="8Gio5fNEHYBw2QR1s_1J-13">
          <mxGeometry relative="1" as="geometry">
            <mxPoint x="280" y="650" as="targetPoint" />
          </mxGeometry>
        </mxCell>
        <mxCell id="8Gio5fNEHYBw2QR1s_1J-19" value="" style="edgeStyle=orthogonalEdgeStyle;rounded=0;orthogonalLoop=1;jettySize=auto;html=1;shadow=0;labelBackgroundColor=none;endArrow=block;endFill=0;endSize=8;strokeWidth=1;fontSize=13;align=left;" edge="1" parent="e6-5AlToE3GWrAjFxom6-1" source="ny1AG7sp7vvqe6_ABWWL-0" target="8Gio5fNEHYBw2QR1s_1J-18">
          <mxGeometry relative="1" as="geometry" />
        </mxCell>
        <mxCell id="ny1AG7sp7vvqe6_ABWWL-0" value="嗅到氣味" style="rhombus;whiteSpace=wrap;html=1;rounded=1;shadow=0;strokeWidth=1;glass=0;arcSize=35;fontSize=13;" vertex="1" parent="e6-5AlToE3GWrAjFxom6-1">
          <mxGeometry x="230" y="471" width="80" height="80" as="geometry" />
        </mxCell>
        <mxCell id="ny1AG7sp7vvqe6_ABWWL-1" value="No" style="text;html=1;strokeColor=none;fillColor=none;align=center;verticalAlign=middle;whiteSpace=wrap;rounded=0;fontColor=#000000;fontSize=13;" vertex="1" parent="e6-5AlToE3GWrAjFxom6-1">
          <mxGeometry x="330" y="511" width="40" height="20" as="geometry" />
        </mxCell>
        <mxCell id="3e5UWC8aljfjuH1qbXrp-0" value="" style="edgeStyle=orthogonalEdgeStyle;rounded=0;orthogonalLoop=1;jettySize=auto;html=1;shadow=0;labelBackgroundColor=none;endArrow=block;endFill=0;endSize=8;strokeWidth=1;align=left;fontSize=13;" edge="1" parent="e6-5AlToE3GWrAjFxom6-1">
          <mxGeometry relative="1" as="geometry">
            <mxPoint x="380" y="511" as="sourcePoint" />
            <mxPoint x="310" y="511" as="targetPoint" />
          </mxGeometry>
        </mxCell>
        <mxCell id="8Gio5fNEHYBw2QR1s_1J-13" value="role = follower&lt;br style=&quot;font-size: 13px&quot;&gt;action = return1" style="whiteSpace=wrap;html=1;rounded=1;shadow=0;strokeWidth=1;glass=0;fontSize=13;" vertex="1" parent="e6-5AlToE3GWrAjFxom6-1">
          <mxGeometry x="210" y="591" width="120" height="60" as="geometry" />
        </mxCell>
        <mxCell id="8Gio5fNEHYBw2QR1s_1J-16" value="Yes" style="text;html=1;strokeColor=none;fillColor=none;align=center;verticalAlign=middle;whiteSpace=wrap;rounded=0;fontColor=#000000;fontSize=13;" vertex="1" parent="e6-5AlToE3GWrAjFxom6-1">
          <mxGeometry x="280" y="560" width="40" height="20" as="geometry" />
        </mxCell>
        <mxCell id="Psq5TwifJkmShZmUbN6R-4" value="" style="edgeStyle=orthogonalEdgeStyle;rounded=0;orthogonalLoop=1;jettySize=auto;html=1;shadow=0;labelBackgroundColor=none;endArrow=block;endFill=0;endSize=8;strokeWidth=1;fontSize=13;align=left;" edge="1" parent="e6-5AlToE3GWrAjFxom6-1" source="8Gio5fNEHYBw2QR1s_1J-18" target="Psq5TwifJkmShZmUbN6R-3">
          <mxGeometry relative="1" as="geometry" />
        </mxCell>
        <mxCell id="8Gio5fNEHYBw2QR1s_1J-18" value="達到上限步數" style="rhombus;whiteSpace=wrap;html=1;rounded=1;shadow=0;fontSize=13;strokeWidth=1;glass=0;arcSize=35;" vertex="1" parent="e6-5AlToE3GWrAjFxom6-1">
          <mxGeometry x="70" y="471" width="80" height="80" as="geometry" />
        </mxCell>
        <mxCell id="Psq5TwifJkmShZmUbN6R-0" value="No" style="text;html=1;strokeColor=none;fillColor=none;align=center;verticalAlign=middle;whiteSpace=wrap;rounded=0;fontColor=#000000;fontSize=13;" vertex="1" parent="e6-5AlToE3GWrAjFxom6-1">
          <mxGeometry x="170" y="480" width="40" height="20" as="geometry" />
        </mxCell>
        <mxCell id="Psq5TwifJkmShZmUbN6R-3" value="action = return" style="whiteSpace=wrap;html=1;rounded=1;shadow=0;strokeWidth=1;glass=0;fontSize=13;" vertex="1" parent="e6-5AlToE3GWrAjFxom6-1">
          <mxGeometry x="50" y="591" width="120" height="60" as="geometry" />
        </mxCell>
        <mxCell id="lK7JsbOiQ2ySp4HmNh5x-0" value="Yes" style="text;html=1;strokeColor=none;fillColor=none;align=center;verticalAlign=middle;whiteSpace=wrap;rounded=0;fontColor=#000000;fontSize=13;" vertex="1" parent="e6-5AlToE3GWrAjFxom6-1">
          <mxGeometry x="130" y="551" width="40" height="20" as="geometry" />
        </mxCell>
        <mxCell id="lK7JsbOiQ2ySp4HmNh5x-6" value="Yes" style="edgeStyle=orthogonalEdgeStyle;rounded=0;orthogonalLoop=1;jettySize=auto;html=1;shadow=0;labelBackgroundColor=none;endArrow=block;endFill=0;endSize=8;strokeWidth=1;fontSize=13;align=right;spacingLeft=0;" edge="1" parent="e6-5AlToE3GWrAjFxom6-1">
          <mxGeometry x="0.4" y="35" relative="1" as="geometry">
            <mxPoint x="725" y="209" as="sourcePoint" />
            <mxPoint x="725" y="239" as="targetPoint" />
            <mxPoint as="offset" />
          </mxGeometry>
        </mxCell>
        <mxCell id="lK7JsbOiQ2ySp4HmNh5x-1" value="leader" style="rhombus;whiteSpace=wrap;html=1;rounded=1;shadow=0;strokeWidth=1;glass=0;fontSize=13;" vertex="1" parent="e6-5AlToE3GWrAjFxom6-1">
          <mxGeometry x="685" y="129" width="80" height="80" as="geometry" />
        </mxCell>
        <mxCell id="hymYCqf2DYKgHM0CP8rp-1" value="" style="edgeStyle=orthogonalEdgeStyle;rounded=0;orthogonalLoop=1;jettySize=auto;html=1;shadow=0;labelBackgroundColor=none;endArrow=block;endFill=0;endSize=8;strokeWidth=1;fontSize=13;align=right;" edge="1" parent="e6-5AlToE3GWrAjFxom6-1" source="lK7JsbOiQ2ySp4HmNh5x-3" target="hymYCqf2DYKgHM0CP8rp-0">
          <mxGeometry relative="1" as="geometry" />
        </mxCell>
        <mxCell id="lK7JsbOiQ2ySp4HmNh5x-3" value="action" style="rhombus;whiteSpace=wrap;html=1;rounded=1;shadow=0;strokeWidth=1;glass=0;fontSize=13;" vertex="1" parent="e6-5AlToE3GWrAjFxom6-1">
          <mxGeometry x="685" y="239" width="80" height="80" as="geometry" />
        </mxCell>
        <mxCell id="VDN-kF3e2G0UEtOCqDv0-2" value="" style="edgeStyle=orthogonalEdgeStyle;rounded=0;orthogonalLoop=1;jettySize=auto;html=1;shadow=0;labelBackgroundColor=none;endArrow=block;endFill=0;endSize=8;strokeWidth=1;fontSize=13;align=right;" edge="1" parent="e6-5AlToE3GWrAjFxom6-1" source="hymYCqf2DYKgHM0CP8rp-0" target="VDN-kF3e2G0UEtOCqDv0-1">
          <mxGeometry relative="1" as="geometry" />
        </mxCell>
        <mxCell id="hymYCqf2DYKgHM0CP8rp-0" value="往巢穴移動一步&lt;br style=&quot;font-size: 13px;&quot;&gt;並&lt;font color=&quot;#ff0000&quot; style=&quot;font-size: 13px;&quot;&gt;增添&lt;/font&gt;費洛蒙" style="whiteSpace=wrap;html=1;rounded=1;shadow=0;strokeWidth=1;glass=0;fontSize=13;" vertex="1" parent="e6-5AlToE3GWrAjFxom6-1">
          <mxGeometry x="665" y="360" width="120" height="60" as="geometry" />
        </mxCell>
        <mxCell id="VDN-kF3e2G0UEtOCqDv0-0" value="return1" style="text;html=1;strokeColor=none;fillColor=none;align=center;verticalAlign=middle;whiteSpace=wrap;rounded=0;fontColor=#000000;fontSize=13;" vertex="1" parent="e6-5AlToE3GWrAjFxom6-1">
          <mxGeometry x="740" y="330" width="40" height="20" as="geometry" />
        </mxCell>
        <mxCell id="VDN-kF3e2G0UEtOCqDv0-4" value="" style="edgeStyle=orthogonalEdgeStyle;rounded=0;orthogonalLoop=1;jettySize=auto;html=1;shadow=0;labelBackgroundColor=none;endArrow=block;endFill=0;endSize=8;strokeWidth=1;fontSize=13;align=right;" edge="1" parent="e6-5AlToE3GWrAjFxom6-1" source="VDN-kF3e2G0UEtOCqDv0-1" target="VDN-kF3e2G0UEtOCqDv0-3">
          <mxGeometry relative="1" as="geometry" />
        </mxCell>
        <mxCell id="VDN-kF3e2G0UEtOCqDv0-1" value="&lt;span&gt;抵達食物&lt;/span&gt;" style="rhombus;whiteSpace=wrap;html=1;rounded=1;shadow=0;fontSize=13;strokeWidth=1;glass=0;" vertex="1" parent="e6-5AlToE3GWrAjFxom6-1">
          <mxGeometry x="685" y="471" width="80" height="80" as="geometry" />
        </mxCell>
        <mxCell id="LKYx5Yq_qKN5qzXWiNuF-2" value="" style="edgeStyle=orthogonalEdgeStyle;rounded=0;orthogonalLoop=1;jettySize=auto;html=1;shadow=0;labelBackgroundColor=none;endArrow=block;endFill=0;endSize=8;strokeWidth=1;fontSize=13;align=right;" edge="1" parent="e6-5AlToE3GWrAjFxom6-1" source="VDN-kF3e2G0UEtOCqDv0-3">
          <mxGeometry relative="1" as="geometry">
            <mxPoint x="660" y="711" as="targetPoint" />
          </mxGeometry>
        </mxCell>
        <mxCell id="LKYx5Yq_qKN5qzXWiNuF-4" style="edgeStyle=orthogonalEdgeStyle;rounded=0;orthogonalLoop=1;jettySize=auto;html=1;entryX=0.5;entryY=0;entryDx=0;entryDy=0;shadow=0;labelBackgroundColor=none;endArrow=block;endFill=0;endSize=8;strokeWidth=1;fontSize=13;align=right;" edge="1" parent="e6-5AlToE3GWrAjFxom6-1" source="VDN-kF3e2G0UEtOCqDv0-3" target="LKYx5Yq_qKN5qzXWiNuF-3">
          <mxGeometry relative="1" as="geometry" />
        </mxCell>
        <mxCell id="VDN-kF3e2G0UEtOCqDv0-3" value="食物已空" style="rhombus;whiteSpace=wrap;html=1;rounded=1;shadow=0;strokeWidth=1;glass=0;fontSize=13;" vertex="1" parent="e6-5AlToE3GWrAjFxom6-1">
          <mxGeometry x="685" y="591" width="80" height="80" as="geometry" />
        </mxCell>
        <mxCell id="VDN-kF3e2G0UEtOCqDv0-5" value="Yes" style="text;html=1;strokeColor=none;fillColor=none;align=center;verticalAlign=middle;whiteSpace=wrap;rounded=0;fontColor=#000000;fontSize=13;" vertex="1" parent="e6-5AlToE3GWrAjFxom6-1">
          <mxGeometry x="740" y="560" width="40" height="20" as="geometry" />
        </mxCell>
        <mxCell id="LKYx5Yq_qKN5qzXWiNuF-1" value="採集食物&lt;br style=&quot;font-size: 13px&quot;&gt;action = return1" style="whiteSpace=wrap;html=1;rounded=1;shadow=0;strokeWidth=1;glass=0;fontSize=13;arcSize=22;" vertex="1" parent="e6-5AlToE3GWrAjFxom6-1">
          <mxGeometry x="460" y="711" width="120" height="60" as="geometry" />
        </mxCell>
        <mxCell id="LKYx5Yq_qKN5qzXWiNuF-3" value="action = return2" style="whiteSpace=wrap;html=1;rounded=1;shadow=0;strokeWidth=1;glass=0;fontSize=13;arcSize=22;" vertex="1" parent="e6-5AlToE3GWrAjFxom6-1">
          <mxGeometry x="750" y="711" width="120" height="60" as="geometry" />
        </mxCell>
        <mxCell id="LKYx5Yq_qKN5qzXWiNuF-5" value="Yes" style="text;html=1;strokeColor=none;fillColor=none;align=center;verticalAlign=middle;whiteSpace=wrap;rounded=0;fontColor=#000000;fontSize=13;" vertex="1" parent="e6-5AlToE3GWrAjFxom6-1">
          <mxGeometry x="750" y="671" width="40" height="20" as="geometry" />
        </mxCell>
        <mxCell id="LKYx5Yq_qKN5qzXWiNuF-6" value="No" style="text;html=1;strokeColor=none;fillColor=none;align=center;verticalAlign=middle;whiteSpace=wrap;rounded=0;fontColor=#000000;fontSize=13;" vertex="1" parent="e6-5AlToE3GWrAjFxom6-1">
          <mxGeometry x="675" y="671" width="45" height="20" as="geometry" />
        </mxCell>
        <mxCell id="LKYx5Yq_qKN5qzXWiNuF-10" value="視空食為障礙物" style="html=1;verticalLabelPosition=middle;align=center;labelBackgroundColor=#ffffff;verticalAlign=middle;strokeWidth=2;strokeColor=#0080F0;shadow=0;dashed=0;shape=mxgraph.ios7.icons.message;fontSize=13;labelPosition=center;" vertex="1" parent="e6-5AlToE3GWrAjFxom6-1">
          <mxGeometry x="230" y="320" width="125" height="50" as="geometry" />
        </mxCell>
      </root>
    </mxGraphModel>
  </diagram>
</mxfile>
